<svg xmlns="http://www.w3.org/2000/svg" width="512" height="512" viewBox="0 0 512 512">
  <defs>
    <radialGradient id="bg" cx="50%" cy="38%" r="75%">
      <stop offset="0%" stop-color="#1c2015"/>
      <stop offset="100%" stop-color="#0c0e09"/>
    </radialGradient>
    <linearGradient id="gold" x1="0" y1="0" x2="0" y2="1">
      <stop offset="0%" stop-color="#f0d675"/>
      <stop offset="55%" stop-color="#d4af37"/>
      <stop offset="100%" stop-color="#a5851f"/>
    </linearGradient>
  </defs>
  <rect width="512" height="512" rx="112" fill="url(#bg)"/>
  <rect x="26" y="26" width="460" height="460" rx="92" fill="none" stroke="#d4af37" stroke-opacity="0.55" stroke-width="6"/>
  <!-- Espada (spade) -->
  <path fill="url(#gold)" d="M256 104
    C 210 168, 132 208, 132 286
    c 0 44, 34 76, 74 76
    c 20 0, 36 -8, 46 -22
    c -6 40, -20 66, -44 88
    l 96 0
    c -24 -22, -38 -48, -44 -88
    c 10 14, 26 22, 46 22
    c 40 0, 74 -32, 74 -76
    c 0 -78, -78 -118, -124 -182 Z"/>
  <text x="256" y="466" text-anchor="middle" font-family="Segoe UI, Arial, sans-serif" font-size="52" font-weight="800" fill="#d4af37" letter-spacing="2">9-MAX</text>
</svg>
